<svg xmlns="http://www.w3.org/2000/svg" viewBox="0 0 32 32" fill="none">
  <defs>
    <linearGradient id="bm-ink" x1="4" y1="3" x2="28" y2="29" gradientUnits="userSpaceOnUse">
      <stop stop-color="#181c1a"/>
      <stop offset="1" stop-color="#0a0c0b"/>
    </linearGradient>
    <linearGradient id="bm-glow" x1="8" y1="8" x2="26" y2="26" gradientUnits="userSpaceOnUse">
      <stop stop-color="#b8ffc6"/>
      <stop offset="1" stop-color="#3ecf6a"/>
    </linearGradient>
  </defs>
  <rect x="1.5" y="1.5" width="29" height="29" rx="8" fill="url(#bm-ink)"/>
  <rect x="1.5" y="1.5" width="29" height="29" rx="8" stroke="rgba(136,249,145,0.28)" stroke-width="1" fill="none"/>
  <!-- chart cells -->
  <rect x="6.2" y="6.2" width="4.35" height="4.35" rx="0.85" fill="rgba(239,68,68,0.55)" stroke="rgba(255,255,255,0.1)" stroke-width="0.4"/>
  <rect x="11.3" y="6.2" width="4.35" height="4.35" rx="0.85" fill="rgba(239,68,68,0.55)" stroke="rgba(255,255,255,0.1)" stroke-width="0.4"/>
  <rect x="16.4" y="6.2" width="4.35" height="4.35" rx="0.85" fill="rgba(255,255,255,0.06)" stroke="rgba(255,255,255,0.1)" stroke-width="0.4"/>
  <rect x="21.5" y="6.2" width="4.35" height="4.35" rx="0.85" fill="rgba(255,255,255,0.06)" stroke="rgba(255,255,255,0.1)" stroke-width="0.4"/>
  <rect x="6.2" y="11.3" width="4.35" height="4.35" rx="0.85" fill="rgba(239,68,68,0.55)" stroke="rgba(255,255,255,0.1)" stroke-width="0.4"/>
  <rect x="11.3" y="11.3" width="4.35" height="4.35" rx="0.85" fill="rgba(34,197,94,0.4)" stroke="rgba(255,255,255,0.1)" stroke-width="0.4"/>
  <rect x="16.4" y="11.3" width="4.35" height="4.35" rx="0.85" fill="rgba(255,255,255,0.06)" stroke="rgba(255,255,255,0.1)" stroke-width="0.4"/>
  <rect x="21.5" y="11.3" width="4.35" height="4.35" rx="0.85" fill="rgba(255,255,255,0.06)" stroke="rgba(255,255,255,0.1)" stroke-width="0.4"/>
  <rect x="6.2" y="16.4" width="4.35" height="4.35" rx="0.85" fill="rgba(255,255,255,0.06)" stroke="rgba(255,255,255,0.1)" stroke-width="0.4"/>
  <rect x="11.3" y="16.4" width="4.35" height="4.35" rx="0.85" fill="rgba(34,197,94,0.4)" stroke="rgba(255,255,255,0.1)" stroke-width="0.4"/>
  <rect x="16.4" y="16.4" width="4.35" height="4.35" rx="0.85" fill="rgba(255,255,255,0.06)" stroke="rgba(255,255,255,0.1)" stroke-width="0.4"/>
  <rect x="21.5" y="16.4" width="4.35" height="4.35" rx="0.85" fill="rgba(255,255,255,0.06)" stroke="rgba(255,255,255,0.1)" stroke-width="0.4"/>
  <rect x="6.2" y="21.5" width="4.35" height="4.35" rx="0.85" fill="rgba(255,255,255,0.06)" stroke="rgba(255,255,255,0.1)" stroke-width="0.4"/>
  <rect x="11.3" y="21.5" width="4.35" height="4.35" rx="0.85" fill="rgba(255,255,255,0.06)" stroke="rgba(255,255,255,0.1)" stroke-width="0.4"/>
  <rect x="16.4" y="21.5" width="4.35" height="4.35" rx="0.85" fill="rgba(255,255,255,0.06)" stroke="rgba(255,255,255,0.1)" stroke-width="0.4"/>
  <rect x="21.5" y="21.5" width="4.35" height="4.35" rx="0.85" fill="rgba(255,255,255,0.06)" stroke="rgba(255,255,255,0.1)" stroke-width="0.4"/>
  <!-- strategy decision path -->
  <path d="M8.4 24.4 L13.2 19.6 L18.1 19.6 L22.8 14.9 L22.8 8.9" stroke="url(#bm-glow)" stroke-width="1.85" stroke-linecap="round" stroke-linejoin="round" fill="none"/>
  <circle cx="22.8" cy="8.9" r="2.15" fill="url(#bm-glow)"/>
  <circle cx="22.8" cy="8.9" r="0.85" fill="#0a0c0b"/>
</svg>
